<?xml version="1.0" encoding="UTF-8"?>
<!DOCTYPE svg PUBLIC "-//W3C//DTD SVG 1.1//EN" "http://www.w3.org/Graphics/SVG/1.1/DTD/svg11.dtd">
<svg xmlns="http://www.w3.org/2000/svg" style="background: transparent; background-color: transparent; color-scheme: light dark;" xmlns:xlink="http://www.w3.org/1999/xlink" version="1.1" width="342px" height="202px" viewBox="0 0 342 202"><defs/><g><g data-cell-id="0"><g data-cell-id="1"><g data-cell-id="10"><g transform="translate(0.5,0.5)"><path d="M 120 18 L 210 18 M 210 22 L 120 22 M 210 22" fill="none" stroke="#000000" stroke-linejoin="round" stroke-miterlimit="10" pointer-events="all" style="stroke: light-dark(rgb(0, 0, 0), rgb(255, 255, 255));"/></g></g><g data-cell-id="11"><g transform="translate(0.5,0.5)"><rect x="210" y="0" width="120" height="40" fill="#ffffff" stroke="#000000" pointer-events="all" style="fill: light-dark(#ffffff, var(--ge-dark-color, #121212)); stroke: light-dark(rgb(0, 0, 0), rgb(255, 255, 255));"/></g></g><g data-cell-id="12"><g transform="translate(0.5,0.5)"><rect x="0" y="0" width="120" height="40" fill="#ffffff" stroke="#000000" pointer-events="all" style="fill: light-dark(#ffffff, var(--ge-dark-color, #121212)); stroke: light-dark(rgb(0, 0, 0), rgb(255, 255, 255));"/></g></g><g data-cell-id="14"><g transform="translate(0.5,0.5)"><path d="M 139.5 85 L 139.5 95.5 L 120.5 80 L 139.5 64.5 L 139.5 75 L 190.5 75 L 190.5 64.5 L 209.5 80 L 190.5 95.5 L 190.5 85 Z" fill="none" stroke="#000000" stroke-linejoin="round" stroke-miterlimit="10" pointer-events="all" style="stroke: light-dark(rgb(0, 0, 0), rgb(255, 255, 255));"/></g></g><g data-cell-id="15"><g transform="translate(0.5,0.5)"><rect x="210" y="60" width="120" height="40" fill="#ffffff" stroke="#000000" pointer-events="all" style="fill: light-dark(#ffffff, var(--ge-dark-color, #121212)); stroke: light-dark(rgb(0, 0, 0), rgb(255, 255, 255));"/></g></g><g data-cell-id="16"><g transform="translate(0.5,0.5)"><rect x="0" y="60" width="120" height="40" fill="#ffffff" stroke="#000000" pointer-events="all" style="fill: light-dark(#ffffff, var(--ge-dark-color, #121212)); stroke: light-dark(rgb(0, 0, 0), rgb(255, 255, 255));"/></g></g><g data-cell-id="17"><g transform="translate(0.5,0.5)"><path d="M 120.5 145 L 120.5 135 L 165 135 Q 175 135 175 145 L 175 175 L 200.5 175 L 200.5 164.5 L 219.5 180 L 200.5 195.5 L 200.5 185 L 175 185 Q 165 185 165 175 L 165 145 Z" fill="none" stroke="#000000" stroke-linejoin="round" stroke-miterlimit="10" pointer-events="all" style="stroke: light-dark(rgb(0, 0, 0), rgb(255, 255, 255));"/><path d="M 200.5 175 L 200.5 164.5 L 219.5 180 L 200.5 195.5 L 200.5 185" fill="none" stroke="#000000" stroke-linejoin="flat" stroke-miterlimit="4" pointer-events="all" style="stroke: light-dark(rgb(0, 0, 0), rgb(255, 255, 255));"/></g></g><g data-cell-id="18"><g transform="translate(0.5,0.5)"><rect x="220" y="160" width="120" height="40" fill="#ffffff" stroke="#000000" pointer-events="all" style="fill: light-dark(#ffffff, var(--ge-dark-color, #121212)); stroke: light-dark(rgb(0, 0, 0), rgb(255, 255, 255));"/></g></g><g data-cell-id="19"><g transform="translate(0.5,0.5)"><rect x="0" y="120" width="120" height="40" fill="#ffffff" stroke="#000000" pointer-events="all" style="fill: light-dark(#ffffff, var(--ge-dark-color, #121212)); stroke: light-dark(rgb(0, 0, 0), rgb(255, 255, 255));"/></g></g></g></g></g></svg>