<?xml version="1.0" encoding="UTF-8"?>
<!DOCTYPE svg PUBLIC "-//W3C//DTD SVG 1.1//EN" "http://www.w3.org/Graphics/SVG/1.1/DTD/svg11.dtd">
<svg xmlns="http://www.w3.org/2000/svg" style="background: transparent; background-color: transparent; color-scheme: light dark;" xmlns:xlink="http://www.w3.org/1999/xlink" version="1.1" width="692px" height="932px" viewBox="0 0 692 932"><defs/><g><g data-cell-id="0"><g data-cell-id="1"><g data-cell-id="12"><g transform="translate(0.5,0.5)"><path d="M 126.37 40 L 140 40 Q 150 40 159.49 36.84 L 170.51 33.16 Q 180 30 190 30 L 203.63 30" fill="none" stroke="#000000" stroke-miterlimit="10" stroke-dasharray="3 3" pointer-events="stroke" style="stroke: light-dark(rgb(0, 0, 0), rgb(255, 255, 255));"/><path d="M 121.12 40 L 128.12 36.5 L 126.37 40 L 128.12 43.5 Z" fill="#000000" stroke="#000000" stroke-miterlimit="10" pointer-events="all" style="fill: light-dark(rgb(0, 0, 0), rgb(255, 255, 255)); stroke: light-dark(rgb(0, 0, 0), rgb(255, 255, 255));"/><path d="M 208.88 30 L 201.88 33.5 L 203.63 30 L 201.88 26.5 Z" fill="#000000" stroke="#000000" stroke-miterlimit="10" pointer-events="all" style="fill: light-dark(rgb(0, 0, 0), rgb(255, 255, 255)); stroke: light-dark(rgb(0, 0, 0), rgb(255, 255, 255));"/></g></g><g data-cell-id="13"><g transform="translate(0.5,0.5)"><rect x="210" y="10" width="120" height="40" fill="#ffffff" stroke="#000000" pointer-events="all" style="fill: light-dark(#ffffff, var(--ge-dark-color, #121212)); stroke: light-dark(rgb(0, 0, 0), rgb(255, 255, 255));"/></g></g><g data-cell-id="14"><g transform="translate(0.5,0.5)"><rect x="0" y="20" width="120" height="40" fill="#ffffff" stroke="#000000" pointer-events="all" style="fill: light-dark(#ffffff, var(--ge-dark-color, #121212)); stroke: light-dark(rgb(0, 0, 0), rgb(255, 255, 255));"/></g></g><g data-cell-id="15"><g transform="translate(0.5,0.5)"><path d="M 126.37 90 L 140 90 Q 150 90 159.49 86.84 L 170.51 83.16 Q 180 80 190 80 L 203.63 80" fill="none" stroke="#000000" stroke-miterlimit="10" stroke-dasharray="8 8" pointer-events="stroke" style="stroke: light-dark(rgb(0, 0, 0), rgb(255, 255, 255));"/><path d="M 121.12 90 L 128.12 87.67 L 126.37 90 L 128.12 92.33 Z" fill="#000000" stroke="#000000" stroke-miterlimit="10" pointer-events="all" style="fill: light-dark(rgb(0, 0, 0), rgb(255, 255, 255)); stroke: light-dark(rgb(0, 0, 0), rgb(255, 255, 255));"/><path d="M 208.88 80 L 201.88 82.33 L 203.63 80 L 201.88 77.67 Z" fill="#000000" stroke="#000000" stroke-miterlimit="10" pointer-events="all" style="fill: light-dark(rgb(0, 0, 0), rgb(255, 255, 255)); stroke: light-dark(rgb(0, 0, 0), rgb(255, 255, 255));"/></g></g><g data-cell-id="16"><g transform="translate(0.5,0.5)"><rect x="210" y="60" width="120" height="40" fill="#ffffff" stroke="#000000" pointer-events="all" style="fill: light-dark(#ffffff, var(--ge-dark-color, #121212)); stroke: light-dark(rgb(0, 0, 0), rgb(255, 255, 255));"/></g></g><g data-cell-id="17"><g transform="translate(0.5,0.5)"><rect x="0" y="70" width="120" height="40" fill="#ffffff" stroke="#000000" pointer-events="all" style="fill: light-dark(#ffffff, var(--ge-dark-color, #121212)); stroke: light-dark(rgb(0, 0, 0), rgb(255, 255, 255));"/></g></g><g data-cell-id="18"><g transform="translate(0.5,0.5)"><path d="M 122.24 140 L 140 140 Q 150 140 159.49 136.84 L 170.51 133.16 Q 180 130 190 130 L 207.76 130" fill="none" stroke="#000000" stroke-miterlimit="10" stroke-dasharray="12 12" pointer-events="stroke" style="stroke: light-dark(rgb(0, 0, 0), rgb(255, 255, 255));"/><path d="M 128.12 136.5 L 121.12 140 L 128.12 143.5" fill="none" stroke="#000000" stroke-miterlimit="10" pointer-events="all" style="stroke: light-dark(rgb(0, 0, 0), rgb(255, 255, 255));"/><path d="M 201.88 133.5 L 208.88 130 L 201.88 126.5" fill="none" stroke="#000000" stroke-miterlimit="10" pointer-events="all" style="stroke: light-dark(rgb(0, 0, 0), rgb(255, 255, 255));"/></g></g><g data-cell-id="19"><g transform="translate(0.5,0.5)"><rect x="210" y="110" width="120" height="40" fill="#ffffff" stroke="#000000" pointer-events="all" style="fill: light-dark(#ffffff, var(--ge-dark-color, #121212)); stroke: light-dark(rgb(0, 0, 0), rgb(255, 255, 255));"/></g></g><g data-cell-id="20"><g transform="translate(0.5,0.5)"><rect x="0" y="120" width="120" height="40" fill="#ffffff" stroke="#000000" pointer-events="all" style="fill: light-dark(#ffffff, var(--ge-dark-color, #121212)); stroke: light-dark(rgb(0, 0, 0), rgb(255, 255, 255));"/></g></g><g data-cell-id="21"><g transform="translate(0.5,0.5)"><path d="M 482.24 30 L 500 30 Q 510 30 519.49 26.84 L 530.51 23.16 Q 540 20 550 20 L 567.76 20" fill="none" stroke="#000000" stroke-miterlimit="10" stroke-dasharray="1 1" pointer-events="stroke" style="stroke: light-dark(rgb(0, 0, 0), rgb(255, 255, 255));"/><path d="M 488.12 27.67 L 481.12 30 L 488.12 32.33" fill="none" stroke="#000000" stroke-miterlimit="10" pointer-events="all" style="stroke: light-dark(rgb(0, 0, 0), rgb(255, 255, 255));"/><path d="M 561.88 22.33 L 568.88 20 L 561.88 17.67" fill="none" stroke="#000000" stroke-miterlimit="10" pointer-events="all" style="stroke: light-dark(rgb(0, 0, 0), rgb(255, 255, 255));"/></g></g><g data-cell-id="22"><g transform="translate(0.5,0.5)"><rect x="570" y="0" width="120" height="40" fill="#ffffff" stroke="#000000" pointer-events="all" style="fill: light-dark(#ffffff, var(--ge-dark-color, #121212)); stroke: light-dark(rgb(0, 0, 0), rgb(255, 255, 255));"/></g></g><g data-cell-id="23"><g transform="translate(0.5,0.5)"><rect x="360" y="10" width="120" height="40" fill="#ffffff" stroke="#000000" pointer-events="all" style="fill: light-dark(#ffffff, var(--ge-dark-color, #121212)); stroke: light-dark(rgb(0, 0, 0), rgb(255, 255, 255));"/></g></g><g data-cell-id="24"><g transform="translate(0.5,0.5)"><path d="M 480 85 L 500 85 Q 510 85 519.49 81.84 L 530.51 78.16 Q 540 75 550 75 L 570 75" fill="none" stroke="#000000" stroke-miterlimit="10" stroke-dasharray="1 2" pointer-events="stroke" style="stroke: light-dark(rgb(0, 0, 0), rgb(255, 255, 255));"/><path d="M 480 85 L 487 81.5" fill="none" stroke="#000000" stroke-miterlimit="10" pointer-events="all" style="stroke: light-dark(rgb(0, 0, 0), rgb(255, 255, 255));"/><path d="M 570 75 L 563 71.5" fill="none" stroke="#000000" stroke-miterlimit="10" pointer-events="all" style="stroke: light-dark(rgb(0, 0, 0), rgb(255, 255, 255));"/></g></g><g data-cell-id="25"><g transform="translate(0.5,0.5)"><rect x="570" y="55" width="120" height="40" fill="#ffffff" stroke="#000000" pointer-events="all" style="fill: light-dark(#ffffff, var(--ge-dark-color, #121212)); stroke: light-dark(rgb(0, 0, 0), rgb(255, 255, 255));"/></g></g><g data-cell-id="26"><g transform="translate(0.5,0.5)"><rect x="360" y="65" width="120" height="40" fill="#ffffff" stroke="#000000" pointer-events="all" style="fill: light-dark(#ffffff, var(--ge-dark-color, #121212)); stroke: light-dark(rgb(0, 0, 0), rgb(255, 255, 255));"/></g></g><g data-cell-id="27"><g transform="translate(0.5,0.5)"><path d="M 483 135 L 500 135 Q 510 135 519.49 131.84 L 530.51 128.16 Q 540 125 550 125 L 567 125" fill="none" stroke="#000000" stroke-miterlimit="10" stroke-dasharray="1 4" pointer-events="stroke" style="stroke: light-dark(rgb(0, 0, 0), rgb(255, 255, 255));"/><ellipse cx="480" cy="135" rx="3" ry="3" fill="#000000" stroke="#000000" pointer-events="all" style="fill: light-dark(rgb(0, 0, 0), rgb(255, 255, 255)); stroke: light-dark(rgb(0, 0, 0), rgb(255, 255, 255));"/><ellipse cx="570" cy="125" rx="3" ry="3" fill="#000000" stroke="#000000" pointer-events="all" style="fill: light-dark(rgb(0, 0, 0), rgb(255, 255, 255)); stroke: light-dark(rgb(0, 0, 0), rgb(255, 255, 255));"/></g></g><g data-cell-id="28"><g transform="translate(0.5,0.5)"><rect x="570" y="105" width="120" height="40" fill="#ffffff" stroke="#000000" pointer-events="all" style="fill: light-dark(#ffffff, var(--ge-dark-color, #121212)); stroke: light-dark(rgb(0, 0, 0), rgb(255, 255, 255));"/></g></g><g data-cell-id="29"><g transform="translate(0.5,0.5)"><rect x="360" y="115" width="120" height="40" fill="#ffffff" stroke="#000000" pointer-events="all" style="fill: light-dark(#ffffff, var(--ge-dark-color, #121212)); stroke: light-dark(rgb(0, 0, 0), rgb(255, 255, 255));"/></g></g><g data-cell-id="30"><g transform="translate(0.5,0.5)"><path d="M 127.71 230 L 140 230 Q 150 230 159.49 226.84 L 170.51 223.16 Q 180 220 190 220 L 202.29 220" fill="none" stroke="#000000" stroke-miterlimit="10" stroke-dasharray="3 3" pointer-events="stroke" style="stroke: light-dark(rgb(0, 0, 0), rgb(255, 255, 255));"/><path d="M 120.71 230 L 124.21 226.5 L 127.71 230 L 124.21 233.5 Z" fill="#000000" stroke="#000000" stroke-miterlimit="10" pointer-events="all" style="fill: light-dark(rgb(0, 0, 0), rgb(255, 255, 255)); stroke: light-dark(rgb(0, 0, 0), rgb(255, 255, 255));"/><path d="M 209.29 220 L 205.79 223.5 L 202.29 220 L 205.79 216.5 Z" fill="#000000" stroke="#000000" stroke-miterlimit="10" pointer-events="all" style="fill: light-dark(rgb(0, 0, 0), rgb(255, 255, 255)); stroke: light-dark(rgb(0, 0, 0), rgb(255, 255, 255));"/></g></g><g data-cell-id="31"><g transform="translate(0.5,0.5)"><rect x="210" y="200" width="120" height="40" fill="#ffffff" stroke="#000000" pointer-events="all" style="fill: light-dark(#ffffff, var(--ge-dark-color, #121212)); stroke: light-dark(rgb(0, 0, 0), rgb(255, 255, 255));"/></g></g><g data-cell-id="32"><g transform="translate(0.5,0.5)"><rect x="0" y="210" width="120" height="40" fill="#ffffff" stroke="#000000" pointer-events="all" style="fill: light-dark(#ffffff, var(--ge-dark-color, #121212)); stroke: light-dark(rgb(0, 0, 0), rgb(255, 255, 255));"/></g></g><g data-cell-id="33"><g transform="translate(0.5,0.5)"><path d="M 127.99 280 L 140 280 Q 150 280 159.49 276.84 L 170.51 273.16 Q 180 270 190 270 L 202.01 270" fill="none" stroke="#000000" stroke-miterlimit="10" stroke-dasharray="8 8" pointer-events="stroke" style="stroke: light-dark(rgb(0, 0, 0), rgb(255, 255, 255));"/><path d="M 120.99 280 L 124.49 277.94 L 127.99 280 L 124.49 282.06 Z" fill="#000000" stroke="#000000" stroke-miterlimit="10" pointer-events="all" style="fill: light-dark(rgb(0, 0, 0), rgb(255, 255, 255)); stroke: light-dark(rgb(0, 0, 0), rgb(255, 255, 255));"/><path d="M 209.01 270 L 205.51 272.06 L 202.01 270 L 205.51 267.94 Z" fill="#000000" stroke="#000000" stroke-miterlimit="10" pointer-events="all" style="fill: light-dark(rgb(0, 0, 0), rgb(255, 255, 255)); stroke: light-dark(rgb(0, 0, 0), rgb(255, 255, 255));"/></g></g><g data-cell-id="34"><g transform="translate(0.5,0.5)"><rect x="210" y="250" width="120" height="40" fill="#ffffff" stroke="#000000" pointer-events="all" style="fill: light-dark(#ffffff, var(--ge-dark-color, #121212)); stroke: light-dark(rgb(0, 0, 0), rgb(255, 255, 255));"/></g></g><g data-cell-id="35"><g transform="translate(0.5,0.5)"><rect x="0" y="260" width="120" height="40" fill="#ffffff" stroke="#000000" pointer-events="all" style="fill: light-dark(#ffffff, var(--ge-dark-color, #121212)); stroke: light-dark(rgb(0, 0, 0), rgb(255, 255, 255));"/></g></g><g data-cell-id="36"><g transform="translate(0.5,0.5)"><path d="M 126.37 330 L 140 330 Q 150 330 159.49 326.84 L 170.51 323.16 Q 180 320 190 320 L 203.63 320" fill="none" stroke="#000000" stroke-miterlimit="10" stroke-dasharray="12 12" pointer-events="stroke" style="stroke: light-dark(rgb(0, 0, 0), rgb(255, 255, 255));"/><path d="M 121.12 330 L 128.12 326.5 L 126.37 330 L 128.12 333.5 Z" fill="none" stroke="#000000" stroke-miterlimit="10" pointer-events="all" style="stroke: light-dark(rgb(0, 0, 0), rgb(255, 255, 255));"/><path d="M 208.88 320 L 201.88 323.5 L 203.63 320 L 201.88 316.5 Z" fill="none" stroke="#000000" stroke-miterlimit="10" pointer-events="all" style="stroke: light-dark(rgb(0, 0, 0), rgb(255, 255, 255));"/></g></g><g data-cell-id="37"><g transform="translate(0.5,0.5)"><rect x="210" y="300" width="120" height="40" fill="#ffffff" stroke="#000000" pointer-events="all" style="fill: light-dark(#ffffff, var(--ge-dark-color, #121212)); stroke: light-dark(rgb(0, 0, 0), rgb(255, 255, 255));"/></g></g><g data-cell-id="38"><g transform="translate(0.5,0.5)"><rect x="0" y="310" width="120" height="40" fill="#ffffff" stroke="#000000" pointer-events="all" style="fill: light-dark(#ffffff, var(--ge-dark-color, #121212)); stroke: light-dark(rgb(0, 0, 0), rgb(255, 255, 255));"/></g></g><g data-cell-id="39"><g transform="translate(0.5,0.5)"><path d="M 486.37 220 L 500 220 Q 510 220 519.49 216.84 L 530.51 213.16 Q 540 210 550 210 L 563.63 210" fill="none" stroke="#000000" stroke-miterlimit="10" stroke-dasharray="1 1" pointer-events="stroke" style="stroke: light-dark(rgb(0, 0, 0), rgb(255, 255, 255));"/><path d="M 481.12 220 L 488.12 217.67 L 486.37 220 L 488.12 222.33 Z" fill="none" stroke="#000000" stroke-miterlimit="10" pointer-events="all" style="stroke: light-dark(rgb(0, 0, 0), rgb(255, 255, 255));"/><path d="M 568.88 210 L 561.88 212.33 L 563.63 210 L 561.88 207.67 Z" fill="none" stroke="#000000" stroke-miterlimit="10" pointer-events="all" style="stroke: light-dark(rgb(0, 0, 0), rgb(255, 255, 255));"/></g></g><g data-cell-id="40"><g transform="translate(0.5,0.5)"><rect x="570" y="190" width="120" height="40" fill="#ffffff" stroke="#000000" pointer-events="all" style="fill: light-dark(#ffffff, var(--ge-dark-color, #121212)); stroke: light-dark(rgb(0, 0, 0), rgb(255, 255, 255));"/></g></g><g data-cell-id="41"><g transform="translate(0.5,0.5)"><rect x="360" y="200" width="120" height="40" fill="#ffffff" stroke="#000000" pointer-events="all" style="fill: light-dark(#ffffff, var(--ge-dark-color, #121212)); stroke: light-dark(rgb(0, 0, 0), rgb(255, 255, 255));"/></g></g><g data-cell-id="42"><g transform="translate(0.5,0.5)"><path d="M 488.12 275 L 500 275 Q 510 275 519.49 271.84 L 530.51 268.16 Q 540 265 550 265 L 561.88 265" fill="none" stroke="#000000" stroke-miterlimit="10" stroke-dasharray="1 2" pointer-events="stroke" style="stroke: light-dark(rgb(0, 0, 0), rgb(255, 255, 255));"/><path d="M 481.12 275 L 488.12 271.5 L 488.12 278.5 Z" fill="none" stroke="#000000" stroke-miterlimit="10" pointer-events="all" style="stroke: light-dark(rgb(0, 0, 0), rgb(255, 255, 255));"/><path d="M 568.88 265 L 561.88 268.5 L 561.88 261.5 Z" fill="none" stroke="#000000" stroke-miterlimit="10" pointer-events="all" style="stroke: light-dark(rgb(0, 0, 0), rgb(255, 255, 255));"/></g></g><g data-cell-id="43"><g transform="translate(0.5,0.5)"><rect x="570" y="245" width="120" height="40" fill="#ffffff" stroke="#000000" pointer-events="all" style="fill: light-dark(#ffffff, var(--ge-dark-color, #121212)); stroke: light-dark(rgb(0, 0, 0), rgb(255, 255, 255));"/></g></g><g data-cell-id="44"><g transform="translate(0.5,0.5)"><rect x="360" y="255" width="120" height="40" fill="#ffffff" stroke="#000000" pointer-events="all" style="fill: light-dark(#ffffff, var(--ge-dark-color, #121212)); stroke: light-dark(rgb(0, 0, 0), rgb(255, 255, 255));"/></g></g><g data-cell-id="45"><g transform="translate(0.5,0.5)"><path d="M 488.12 325 L 500 325 Q 510 325 519.49 321.84 L 530.51 318.16 Q 540 315 550 315 L 561.88 315" fill="none" stroke="#000000" stroke-miterlimit="10" stroke-dasharray="1 4" pointer-events="stroke" style="stroke: light-dark(rgb(0, 0, 0), rgb(255, 255, 255));"/><path d="M 481.12 325 L 488.12 322.67 L 488.12 327.33 Z" fill="none" stroke="#000000" stroke-miterlimit="10" pointer-events="all" style="stroke: light-dark(rgb(0, 0, 0), rgb(255, 255, 255));"/><path d="M 568.88 315 L 561.88 317.33 L 561.88 312.67 Z" fill="none" stroke="#000000" stroke-miterlimit="10" pointer-events="all" style="stroke: light-dark(rgb(0, 0, 0), rgb(255, 255, 255));"/></g></g><g data-cell-id="46"><g transform="translate(0.5,0.5)"><rect x="570" y="295" width="120" height="40" fill="#ffffff" stroke="#000000" pointer-events="all" style="fill: light-dark(#ffffff, var(--ge-dark-color, #121212)); stroke: light-dark(rgb(0, 0, 0), rgb(255, 255, 255));"/></g></g><g data-cell-id="47"><g transform="translate(0.5,0.5)"><rect x="360" y="305" width="120" height="40" fill="#ffffff" stroke="#000000" pointer-events="all" style="fill: light-dark(#ffffff, var(--ge-dark-color, #121212)); stroke: light-dark(rgb(0, 0, 0), rgb(255, 255, 255));"/></g></g><g data-cell-id="48"><g transform="translate(0.5,0.5)"><path d="M 128.12 430 L 140 430 Q 150 430 159.49 426.84 L 170.51 423.16 Q 180 420 190 420 L 201.88 420" fill="none" stroke="#000000" stroke-miterlimit="10" stroke-dasharray="3 3" pointer-events="stroke" style="stroke: light-dark(rgb(0, 0, 0), rgb(255, 255, 255));"/><path d="M 121.12 430 L 128.12 426.5 L 128.12 430 Z" fill="none" stroke="#000000" stroke-miterlimit="10" pointer-events="all" style="stroke: light-dark(rgb(0, 0, 0), rgb(255, 255, 255));"/><path d="M 208.88 420 L 201.88 416.5 L 201.88 420 Z" fill="none" stroke="#000000" stroke-miterlimit="10" pointer-events="all" style="stroke: light-dark(rgb(0, 0, 0), rgb(255, 255, 255));"/></g></g><g data-cell-id="49"><g transform="translate(0.5,0.5)"><rect x="210" y="400" width="120" height="40" fill="#ffffff" stroke="#000000" pointer-events="all" style="fill: light-dark(#ffffff, var(--ge-dark-color, #121212)); stroke: light-dark(rgb(0, 0, 0), rgb(255, 255, 255));"/></g></g><g data-cell-id="50"><g transform="translate(0.5,0.5)"><rect x="0" y="410" width="120" height="40" fill="#ffffff" stroke="#000000" pointer-events="all" style="fill: light-dark(#ffffff, var(--ge-dark-color, #121212)); stroke: light-dark(rgb(0, 0, 0), rgb(255, 255, 255));"/></g></g><g data-cell-id="51"><g transform="translate(0.5,0.5)"><path d="M 123 480 L 140 480 Q 150 480 159.49 476.84 L 170.51 473.16 Q 180 470 190 470 L 207 470" fill="none" stroke="#000000" stroke-miterlimit="10" stroke-dasharray="8 8" pointer-events="stroke" style="stroke: light-dark(rgb(0, 0, 0), rgb(255, 255, 255));"/><ellipse cx="120" cy="480" rx="3" ry="3" fill="none" stroke="#000000" pointer-events="all" style="stroke: light-dark(rgb(0, 0, 0), rgb(255, 255, 255));"/><ellipse cx="210" cy="470" rx="3" ry="3" fill="none" stroke="#000000" pointer-events="all" style="stroke: light-dark(rgb(0, 0, 0), rgb(255, 255, 255));"/></g></g><g data-cell-id="52"><g transform="translate(0.5,0.5)"><rect x="210" y="450" width="120" height="40" fill="#ffffff" stroke="#000000" pointer-events="all" style="fill: light-dark(#ffffff, var(--ge-dark-color, #121212)); stroke: light-dark(rgb(0, 0, 0), rgb(255, 255, 255));"/></g></g><g data-cell-id="53"><g transform="translate(0.5,0.5)"><rect x="0" y="460" width="120" height="40" fill="#ffffff" stroke="#000000" pointer-events="all" style="fill: light-dark(#ffffff, var(--ge-dark-color, #121212)); stroke: light-dark(rgb(0, 0, 0), rgb(255, 255, 255));"/></g></g><g data-cell-id="54"><g transform="translate(0.5,0.5)"><path d="M 127.71 530 L 140 530 Q 150 530 159.49 526.84 L 170.51 523.16 Q 180 520 190 520 L 202.29 520" fill="none" stroke="#000000" stroke-miterlimit="10" stroke-dasharray="12 12" pointer-events="stroke" style="stroke: light-dark(rgb(0, 0, 0), rgb(255, 255, 255));"/><path d="M 120.71 530 L 124.21 526.5 L 127.71 530 L 124.21 533.5 Z" fill="none" stroke="#000000" stroke-miterlimit="10" pointer-events="all" style="stroke: light-dark(rgb(0, 0, 0), rgb(255, 255, 255));"/><path d="M 209.29 520 L 205.79 523.5 L 202.29 520 L 205.79 516.5 Z" fill="none" stroke="#000000" stroke-miterlimit="10" pointer-events="all" style="stroke: light-dark(rgb(0, 0, 0), rgb(255, 255, 255));"/></g></g><g data-cell-id="55"><g transform="translate(0.5,0.5)"><rect x="210" y="500" width="120" height="40" fill="#ffffff" stroke="#000000" pointer-events="all" style="fill: light-dark(#ffffff, var(--ge-dark-color, #121212)); stroke: light-dark(rgb(0, 0, 0), rgb(255, 255, 255));"/></g></g><g data-cell-id="56"><g transform="translate(0.5,0.5)"><rect x="0" y="510" width="120" height="40" fill="#ffffff" stroke="#000000" pointer-events="all" style="fill: light-dark(#ffffff, var(--ge-dark-color, #121212)); stroke: light-dark(rgb(0, 0, 0), rgb(255, 255, 255));"/></g></g><g data-cell-id="57"><g transform="translate(0.5,0.5)"><path d="M 488 420 L 500 420 Q 510 420 519.49 416.84 L 530.51 413.16 Q 540 410 550 410 L 562 410" fill="none" stroke="#000000" stroke-miterlimit="10" stroke-dasharray="1 1" pointer-events="stroke" style="stroke: light-dark(rgb(0, 0, 0), rgb(255, 255, 255));"/><path d="M 480 416 L 480 424 L 488 424 L 488 416 Z" fill="none" stroke="#000000" stroke-miterlimit="10" pointer-events="all" style="stroke: light-dark(rgb(0, 0, 0), rgb(255, 255, 255));"/><path d="M 570 414 L 570 406 L 562 406 L 562 414 Z" fill="none" stroke="#000000" stroke-miterlimit="10" pointer-events="all" style="stroke: light-dark(rgb(0, 0, 0), rgb(255, 255, 255));"/></g></g><g data-cell-id="58"><g transform="translate(0.5,0.5)"><rect x="570" y="390" width="120" height="40" fill="#ffffff" stroke="#000000" pointer-events="all" style="fill: light-dark(#ffffff, var(--ge-dark-color, #121212)); stroke: light-dark(rgb(0, 0, 0), rgb(255, 255, 255));"/></g></g><g data-cell-id="59"><g transform="translate(0.5,0.5)"><rect x="360" y="400" width="120" height="40" fill="#ffffff" stroke="#000000" pointer-events="all" style="fill: light-dark(#ffffff, var(--ge-dark-color, #121212)); stroke: light-dark(rgb(0, 0, 0), rgb(255, 255, 255));"/></g></g><g data-cell-id="60"><g transform="translate(0.5,0.5)"><path d="M 488 475 L 500 475 Q 510 475 519.49 471.84 L 530.51 468.16 Q 540 465 550 465 L 562 465" fill="none" stroke="#000000" stroke-miterlimit="10" stroke-dasharray="1 2" pointer-events="stroke" style="stroke: light-dark(rgb(0, 0, 0), rgb(255, 255, 255));"/><path d="M 480 467 Q 488 467 488 475 Q 488 483 480 483" fill="none" stroke="#000000" stroke-miterlimit="10" pointer-events="all" style="stroke: light-dark(rgb(0, 0, 0), rgb(255, 255, 255));"/><path d="M 570 473 Q 562 473 562 465 Q 562 457 570 457" fill="none" stroke="#000000" stroke-miterlimit="10" pointer-events="all" style="stroke: light-dark(rgb(0, 0, 0), rgb(255, 255, 255));"/></g></g><g data-cell-id="61"><g transform="translate(0.5,0.5)"><rect x="570" y="445" width="120" height="40" fill="#ffffff" stroke="#000000" pointer-events="all" style="fill: light-dark(#ffffff, var(--ge-dark-color, #121212)); stroke: light-dark(rgb(0, 0, 0), rgb(255, 255, 255));"/></g></g><g data-cell-id="62"><g transform="translate(0.5,0.5)"><rect x="360" y="455" width="120" height="40" fill="#ffffff" stroke="#000000" pointer-events="all" style="fill: light-dark(#ffffff, var(--ge-dark-color, #121212)); stroke: light-dark(rgb(0, 0, 0), rgb(255, 255, 255));"/></g></g><g data-cell-id="63"><g transform="translate(0.5,0.5)"><path d="M 480 525 L 500 525 Q 510 525 519.49 521.84 L 530.51 518.16 Q 540 515 550 515 L 570 515" fill="none" stroke="#000000" stroke-miterlimit="10" stroke-dasharray="1 4" pointer-events="stroke" style="stroke: light-dark(rgb(0, 0, 0), rgb(255, 255, 255));"/><path d="M 484 521 L 492 529" fill="none" stroke="#000000" stroke-miterlimit="10" pointer-events="all" style="stroke: light-dark(rgb(0, 0, 0), rgb(255, 255, 255));"/><path d="M 566 519 L 558 511" fill="none" stroke="#000000" stroke-miterlimit="10" pointer-events="all" style="stroke: light-dark(rgb(0, 0, 0), rgb(255, 255, 255));"/></g></g><g data-cell-id="64"><g transform="translate(0.5,0.5)"><rect x="570" y="495" width="120" height="40" fill="#ffffff" stroke="#000000" pointer-events="all" style="fill: light-dark(#ffffff, var(--ge-dark-color, #121212)); stroke: light-dark(rgb(0, 0, 0), rgb(255, 255, 255));"/></g></g><g data-cell-id="65"><g transform="translate(0.5,0.5)"><rect x="360" y="505" width="120" height="40" fill="#ffffff" stroke="#000000" pointer-events="all" style="fill: light-dark(#ffffff, var(--ge-dark-color, #121212)); stroke: light-dark(rgb(0, 0, 0), rgb(255, 255, 255));"/></g></g><g data-cell-id="66"><g><path d="M 120 620 L 140 620 Q 150 620 159.49 616.84 L 170.51 613.16 Q 180 610 190 610 L 210 610" fill="none" stroke="#000000" stroke-width="2" stroke-miterlimit="10" stroke-dasharray="6 6" pointer-events="stroke" style="stroke: light-dark(rgb(0, 0, 0), rgb(255, 255, 255));"/><path d="M 124.5 615.5 L 133.5 624.5 M 124.5 624.5 L 133.5 615.5" fill="none" stroke="#000000" stroke-width="2" stroke-miterlimit="10" pointer-events="all" style="stroke: light-dark(rgb(0, 0, 0), rgb(255, 255, 255));"/><path d="M 205.5 614.5 L 196.5 605.5 M 205.5 605.5 L 196.5 614.5" fill="none" stroke="#000000" stroke-width="2" stroke-miterlimit="10" pointer-events="all" style="stroke: light-dark(rgb(0, 0, 0), rgb(255, 255, 255));"/></g></g><g data-cell-id="67"><g transform="translate(0.5,0.5)"><rect x="210" y="590" width="120" height="40" fill="#ffffff" stroke="#000000" pointer-events="all" style="fill: light-dark(#ffffff, var(--ge-dark-color, #121212)); stroke: light-dark(rgb(0, 0, 0), rgb(255, 255, 255));"/></g></g><g data-cell-id="68"><g transform="translate(0.5,0.5)"><rect x="0" y="600" width="120" height="40" fill="#ffffff" stroke="#000000" pointer-events="all" style="fill: light-dark(#ffffff, var(--ge-dark-color, #121212)); stroke: light-dark(rgb(0, 0, 0), rgb(255, 255, 255));"/></g></g><g data-cell-id="69"><g><path d="M 138 670 L 144 670 Q 150 670 159.49 666.84 L 170.51 663.16 Q 180 660 186 660 L 192 660" fill="none" stroke="#000000" stroke-width="2" stroke-miterlimit="10" stroke-dasharray="16 16" pointer-events="stroke" style="stroke: light-dark(rgb(0, 0, 0), rgb(255, 255, 255));"/><ellipse cx="130" cy="670" rx="8" ry="8" fill="none" stroke="#000000" stroke-width="2" pointer-events="all" style="stroke: light-dark(rgb(0, 0, 0), rgb(255, 255, 255));"/><path d="M 122 670 L 138 670 M 130 662 L 130 678" fill="none" stroke="#000000" stroke-width="2" stroke-miterlimit="10" pointer-events="all" style="stroke: light-dark(rgb(0, 0, 0), rgb(255, 255, 255));"/><ellipse cx="200" cy="660" rx="8" ry="8" fill="none" stroke="#000000" stroke-width="2" pointer-events="all" style="stroke: light-dark(rgb(0, 0, 0), rgb(255, 255, 255));"/><path d="M 208 660 L 192 660 M 200 668 L 200 652" fill="none" stroke="#000000" stroke-width="2" stroke-miterlimit="10" pointer-events="all" style="stroke: light-dark(rgb(0, 0, 0), rgb(255, 255, 255));"/></g></g><g data-cell-id="70"><g transform="translate(0.5,0.5)"><rect x="210" y="640" width="120" height="40" fill="#ffffff" stroke="#000000" pointer-events="all" style="fill: light-dark(#ffffff, var(--ge-dark-color, #121212)); stroke: light-dark(rgb(0, 0, 0), rgb(255, 255, 255));"/></g></g><g data-cell-id="71"><g transform="translate(0.5,0.5)"><rect x="0" y="650" width="120" height="40" fill="#ffffff" stroke="#000000" pointer-events="all" style="fill: light-dark(#ffffff, var(--ge-dark-color, #121212)); stroke: light-dark(rgb(0, 0, 0), rgb(255, 255, 255));"/></g></g><g data-cell-id="72"><g><path d="M 138 720 L 144 720 Q 150 720 159.49 716.84 L 170.51 713.16 Q 180 710 186 710 L 192 710" fill="none" stroke="#000000" stroke-width="2" stroke-miterlimit="10" stroke-dasharray="24 24" pointer-events="stroke" style="stroke: light-dark(rgb(0, 0, 0), rgb(255, 255, 255));"/><ellipse cx="130" cy="720" rx="8" ry="8" fill="#000000" stroke="#000000" stroke-width="2" pointer-events="all" style="fill: light-dark(rgb(0, 0, 0), rgb(255, 255, 255)); stroke: light-dark(rgb(0, 0, 0), rgb(255, 255, 255));"/><ellipse cx="200" cy="710" rx="8" ry="8" fill="none" stroke="#000000" stroke-width="2" pointer-events="all" style="stroke: light-dark(rgb(0, 0, 0), rgb(255, 255, 255));"/></g></g><g data-cell-id="73"><g transform="translate(0.5,0.5)"><rect x="210" y="690" width="120" height="40" fill="#ffffff" stroke="#000000" pointer-events="all" style="fill: light-dark(#ffffff, var(--ge-dark-color, #121212)); stroke: light-dark(rgb(0, 0, 0), rgb(255, 255, 255));"/></g></g><g data-cell-id="74"><g transform="translate(0.5,0.5)"><rect x="0" y="700" width="120" height="40" fill="#ffffff" stroke="#000000" pointer-events="all" style="fill: light-dark(#ffffff, var(--ge-dark-color, #121212)); stroke: light-dark(rgb(0, 0, 0), rgb(255, 255, 255));"/></g></g><g data-cell-id="75"><g><path d="M 480 610 L 500 610 Q 510 610 519.49 606.84 L 530.51 603.16 Q 540 600 550 600 L 570 600" fill="none" stroke="#a50040" stroke-width="2" stroke-miterlimit="10" stroke-dasharray="2 2" pointer-events="stroke" style="stroke: light-dark(rgb(165, 0, 64), rgb(255, 255, 255));"/><path d="M 480 605.5 L 480 614.5" fill="none" stroke="#a50040" stroke-width="2" stroke-miterlimit="10" pointer-events="all" style="stroke: light-dark(rgb(165, 0, 64), rgb(255, 255, 255));"/><path d="M 570 604.5 L 570 595.5" fill="none" stroke="#a50040" stroke-width="2" stroke-miterlimit="10" pointer-events="all" style="stroke: light-dark(rgb(165, 0, 64), rgb(255, 255, 255));"/></g></g><g data-cell-id="76"><g transform="translate(0.5,0.5)"><rect x="570" y="580" width="120" height="40" fill="#ffffff" stroke="#000000" pointer-events="all" style="fill: light-dark(#ffffff, var(--ge-dark-color, #121212)); stroke: light-dark(rgb(0, 0, 0), rgb(255, 255, 255));"/></g></g><g data-cell-id="77"><g transform="translate(0.5,0.5)"><rect x="360" y="590" width="120" height="40" fill="#ffffff" stroke="#000000" pointer-events="all" style="fill: light-dark(#ffffff, var(--ge-dark-color, #121212)); stroke: light-dark(rgb(0, 0, 0), rgb(255, 255, 255));"/></g></g><g data-cell-id="78"><g><path d="M 480 665 L 500 665 Q 510 665 519.49 661.84 L 530.51 658.16 Q 540 655 550 655 L 570 655" fill="none" stroke="#000000" stroke-width="2" stroke-miterlimit="10" stroke-dasharray="2 4" pointer-events="stroke" style="stroke: light-dark(rgb(0, 0, 0), rgb(255, 255, 255));"/><path d="M 484.5 660.5 L 484.5 669.5" fill="none" stroke="#000000" stroke-width="2" stroke-miterlimit="10" pointer-events="all" style="stroke: light-dark(rgb(0, 0, 0), rgb(255, 255, 255));"/><path d="M 565.5 659.5 L 565.5 650.5" fill="none" stroke="#000000" stroke-width="2" stroke-miterlimit="10" pointer-events="all" style="stroke: light-dark(rgb(0, 0, 0), rgb(255, 255, 255));"/></g></g><g data-cell-id="79"><g transform="translate(0.5,0.5)"><rect x="570" y="635" width="120" height="40" fill="#ffffff" stroke="#000000" pointer-events="all" style="fill: light-dark(#ffffff, var(--ge-dark-color, #121212)); stroke: light-dark(rgb(0, 0, 0), rgb(255, 255, 255));"/></g></g><g data-cell-id="80"><g transform="translate(0.5,0.5)"><rect x="360" y="645" width="120" height="40" fill="#ffffff" stroke="#000000" pointer-events="all" style="fill: light-dark(#ffffff, var(--ge-dark-color, #121212)); stroke: light-dark(rgb(0, 0, 0), rgb(255, 255, 255));"/></g></g><g data-cell-id="81"><g><path d="M 480 715 L 500 715 Q 510 715 519.49 711.84 L 530.51 708.16 Q 540 705 550 705 L 570 705" fill="none" stroke="#000000" stroke-width="2" stroke-miterlimit="10" stroke-dasharray="2 8" pointer-events="stroke" style="stroke: light-dark(rgb(0, 0, 0), rgb(255, 255, 255));"/><path d="M 484.5 710.5 L 484.5 719.5 M 489 710.5 L 489 719.5" fill="none" stroke="#000000" stroke-width="2" stroke-miterlimit="10" pointer-events="all" style="stroke: light-dark(rgb(0, 0, 0), rgb(255, 255, 255));"/><path d="M 565.5 709.5 L 565.5 700.5 M 561 709.5 L 561 700.5" fill="none" stroke="#000000" stroke-width="2" stroke-miterlimit="10" pointer-events="all" style="stroke: light-dark(rgb(0, 0, 0), rgb(255, 255, 255));"/></g></g><g data-cell-id="82"><g transform="translate(0.5,0.5)"><rect x="570" y="685" width="120" height="40" fill="#ffffff" stroke="#000000" pointer-events="all" style="fill: light-dark(#ffffff, var(--ge-dark-color, #121212)); stroke: light-dark(rgb(0, 0, 0), rgb(255, 255, 255));"/></g></g><g data-cell-id="83"><g transform="translate(0.5,0.5)"><rect x="360" y="695" width="120" height="40" fill="#ffffff" stroke="#000000" pointer-events="all" style="fill: light-dark(#ffffff, var(--ge-dark-color, #121212)); stroke: light-dark(rgb(0, 0, 0), rgb(255, 255, 255));"/></g></g><g data-cell-id="84"><g transform="translate(0.5,0.5)"><path d="M 120 810 L 140 810 Q 150 810 159.49 806.84 L 170.51 803.16 Q 180 800 190 800 L 210 800" fill="none" stroke="#000000" stroke-width="3" stroke-miterlimit="10" stroke-dasharray="9 9" pointer-events="stroke" style="stroke: light-dark(rgb(0, 0, 0), rgb(255, 255, 255));"/><path d="M 120 815 L 130 810 L 120 805" fill="none" stroke="#000000" stroke-width="3" stroke-miterlimit="10" pointer-events="all" style="stroke: light-dark(rgb(0, 0, 0), rgb(255, 255, 255));"/><path d="M 210 795 L 200 800 L 210 805" fill="none" stroke="#000000" stroke-width="3" stroke-miterlimit="10" pointer-events="all" style="stroke: light-dark(rgb(0, 0, 0), rgb(255, 255, 255));"/></g></g><g data-cell-id="85"><g transform="translate(0.5,0.5)"><rect x="210" y="780" width="120" height="40" fill="#ffffff" stroke="#000000" pointer-events="all" style="fill: light-dark(#ffffff, var(--ge-dark-color, #121212)); stroke: light-dark(rgb(0, 0, 0), rgb(255, 255, 255));"/></g></g><g data-cell-id="86"><g transform="translate(0.5,0.5)"><rect x="0" y="790" width="120" height="40" fill="#ffffff" stroke="#000000" pointer-events="all" style="fill: light-dark(#ffffff, var(--ge-dark-color, #121212)); stroke: light-dark(rgb(0, 0, 0), rgb(255, 255, 255));"/></g></g><g data-cell-id="87"><g transform="translate(0.5,0.5)"><path d="M 120 860 L 140 860 Q 150 860 159.49 856.84 L 170.51 853.16 Q 180 850 190 850 L 210 850" fill="none" stroke="#000000" stroke-width="3" stroke-miterlimit="10" stroke-dasharray="24 24" pointer-events="stroke" style="stroke: light-dark(rgb(0, 0, 0), rgb(255, 255, 255));"/><path d="M 130 855 L 130 865 M 120 865 L 130 860 L 120 855" fill="none" stroke="#000000" stroke-width="3" stroke-miterlimit="10" pointer-events="all" style="stroke: light-dark(rgb(0, 0, 0), rgb(255, 255, 255));"/><path d="M 200 855 L 200 845 M 210 845 L 200 850 L 210 855" fill="none" stroke="#000000" stroke-width="3" stroke-miterlimit="10" pointer-events="all" style="stroke: light-dark(rgb(0, 0, 0), rgb(255, 255, 255));"/></g></g><g data-cell-id="88"><g transform="translate(0.5,0.5)"><rect x="210" y="830" width="120" height="40" fill="#ffffff" stroke="#000000" pointer-events="all" style="fill: light-dark(#ffffff, var(--ge-dark-color, #121212)); stroke: light-dark(rgb(0, 0, 0), rgb(255, 255, 255));"/></g></g><g data-cell-id="89"><g transform="translate(0.5,0.5)"><rect x="0" y="840" width="120" height="40" fill="#ffffff" stroke="#000000" pointer-events="all" style="fill: light-dark(#ffffff, var(--ge-dark-color, #121212)); stroke: light-dark(rgb(0, 0, 0), rgb(255, 255, 255));"/></g></g><g data-cell-id="90"><g transform="translate(0.5,0.5)"><path d="M 138.5 910 L 144.25 910 Q 150 910 159.49 906.84 L 170.51 903.16 Q 180 900 185.75 900 L 191.5 900" fill="none" stroke="#000000" stroke-width="3" stroke-miterlimit="10" stroke-dasharray="36 36" pointer-events="stroke" style="stroke: light-dark(rgb(0, 0, 0), rgb(255, 255, 255));"/><ellipse cx="135" cy="910" rx="3" ry="3" fill="none" stroke="#000000" stroke-width="3" pointer-events="all" style="stroke: light-dark(rgb(0, 0, 0), rgb(255, 255, 255));"/><path d="M 125 905 L 125 915 M 131.5 910 L 120 910" fill="none" stroke="#000000" stroke-width="3" stroke-miterlimit="10" pointer-events="all" style="stroke: light-dark(rgb(0, 0, 0), rgb(255, 255, 255));"/><ellipse cx="195" cy="900" rx="3" ry="3" fill="none" stroke="#000000" stroke-width="3" pointer-events="all" style="stroke: light-dark(rgb(0, 0, 0), rgb(255, 255, 255));"/><path d="M 205 905 L 205 895 M 198.5 900 L 210 900" fill="none" stroke="#000000" stroke-width="3" stroke-miterlimit="10" pointer-events="all" style="stroke: light-dark(rgb(0, 0, 0), rgb(255, 255, 255));"/></g></g><g data-cell-id="91"><g transform="translate(0.5,0.5)"><rect x="210" y="880" width="120" height="40" fill="#ffffff" stroke="#000000" pointer-events="all" style="fill: light-dark(#ffffff, var(--ge-dark-color, #121212)); stroke: light-dark(rgb(0, 0, 0), rgb(255, 255, 255));"/></g></g><g data-cell-id="92"><g transform="translate(0.5,0.5)"><rect x="0" y="890" width="120" height="40" fill="#ffffff" stroke="#000000" pointer-events="all" style="fill: light-dark(#ffffff, var(--ge-dark-color, #121212)); stroke: light-dark(rgb(0, 0, 0), rgb(255, 255, 255));"/></g></g><g data-cell-id="93"><g transform="translate(0.5,0.5)"><path d="M 498.5 800 L 504.25 800 Q 510 800 519.49 796.84 L 530.51 793.16 Q 540 790 545.75 790 L 551.5 790" fill="none" stroke="#000000" stroke-width="3" stroke-miterlimit="10" stroke-dasharray="3 3" pointer-events="stroke" style="stroke: light-dark(rgb(0, 0, 0), rgb(255, 255, 255));"/><ellipse cx="495" cy="800" rx="3" ry="3" fill="none" stroke="#000000" stroke-width="3" pointer-events="all" style="stroke: light-dark(rgb(0, 0, 0), rgb(255, 255, 255));"/><path d="M 480 805 L 490 800 L 480 795 M 490 800 L 480 800" fill="none" stroke="#000000" stroke-width="3" stroke-miterlimit="10" pointer-events="all" style="stroke: light-dark(rgb(0, 0, 0), rgb(255, 255, 255));"/><ellipse cx="555" cy="790" rx="3" ry="3" fill="none" stroke="#000000" stroke-width="3" pointer-events="all" style="stroke: light-dark(rgb(0, 0, 0), rgb(255, 255, 255));"/><path d="M 570 785 L 560 790 L 570 795 M 560 790 L 570 790" fill="none" stroke="#000000" stroke-width="3" stroke-miterlimit="10" pointer-events="all" style="stroke: light-dark(rgb(0, 0, 0), rgb(255, 255, 255));"/></g></g><g data-cell-id="94"><g transform="translate(0.5,0.5)"><rect x="570" y="770" width="120" height="40" fill="#ffffff" stroke="#000000" pointer-events="all" style="fill: light-dark(#ffffff, var(--ge-dark-color, #121212)); stroke: light-dark(rgb(0, 0, 0), rgb(255, 255, 255));"/></g></g><g data-cell-id="95"><g transform="translate(0.5,0.5)"><rect x="360" y="780" width="120" height="40" fill="#ffffff" stroke="#000000" pointer-events="all" style="fill: light-dark(#ffffff, var(--ge-dark-color, #121212)); stroke: light-dark(rgb(0, 0, 0), rgb(255, 255, 255));"/></g></g><g data-cell-id="96"><g transform="translate(0.5,0.5)"><path d="M 501.35 855 L 505.68 855 Q 510 855 519.49 851.84 L 530.51 848.16 Q 540 845 544.32 845 L 548.65 845" fill="none" stroke="#000000" stroke-width="3" stroke-miterlimit="10" stroke-dasharray="3 6" pointer-events="stroke" style="stroke: light-dark(rgb(0, 0, 0), rgb(255, 255, 255));"/><path d="M 483.35 855 L 492.35 850.5 L 492.35 859.5 Z M 492.35 855 L 501.35 850.5 L 501.35 859.5 Z" fill="none" stroke="#000000" stroke-width="3" stroke-miterlimit="10" pointer-events="all" style="stroke: light-dark(rgb(0, 0, 0), rgb(255, 255, 255));"/><path d="M 566.65 845 L 557.65 849.5 L 557.65 840.5 Z M 557.65 845 L 548.65 849.5 L 548.65 840.5 Z" fill="none" stroke="#000000" stroke-width="3" stroke-miterlimit="10" pointer-events="all" style="stroke: light-dark(rgb(0, 0, 0), rgb(255, 255, 255));"/></g></g><g data-cell-id="97"><g transform="translate(0.5,0.5)"><rect x="570" y="825" width="120" height="40" fill="#ffffff" stroke="#000000" pointer-events="all" style="fill: light-dark(#ffffff, var(--ge-dark-color, #121212)); stroke: light-dark(rgb(0, 0, 0), rgb(255, 255, 255));"/></g></g><g data-cell-id="98"><g transform="translate(0.5,0.5)"><rect x="360" y="835" width="120" height="40" fill="#ffffff" stroke="#000000" pointer-events="all" style="fill: light-dark(#ffffff, var(--ge-dark-color, #121212)); stroke: light-dark(rgb(0, 0, 0), rgb(255, 255, 255));"/></g></g><g data-cell-id="99"><g transform="translate(0.5,0.5)"><path d="M 501.35 905 L 505.68 905 Q 510 905 519.49 901.84 L 530.51 898.16 Q 540 895 544.32 895 L 548.65 895" fill="none" stroke="#000000" stroke-width="3" stroke-miterlimit="10" stroke-dasharray="3 12" pointer-events="stroke" style="stroke: light-dark(rgb(0, 0, 0), rgb(255, 255, 255));"/><path d="M 483.35 905 L 492.35 900.5 L 492.35 909.5 Z M 492.35 905 L 501.35 900.5 L 501.35 909.5 Z" fill="#000000" stroke="#000000" stroke-width="3" stroke-miterlimit="10" pointer-events="all" style="fill: light-dark(rgb(0, 0, 0), rgb(255, 255, 255)); stroke: light-dark(rgb(0, 0, 0), rgb(255, 255, 255));"/><path d="M 566.65 895 L 557.65 899.5 L 557.65 890.5 Z M 557.65 895 L 548.65 899.5 L 548.65 890.5 Z" fill="#000000" stroke="#000000" stroke-width="3" stroke-miterlimit="10" pointer-events="all" style="fill: light-dark(rgb(0, 0, 0), rgb(255, 255, 255)); stroke: light-dark(rgb(0, 0, 0), rgb(255, 255, 255));"/></g></g><g data-cell-id="100"><g transform="translate(0.5,0.5)"><rect x="570" y="875" width="120" height="40" fill="#ffffff" stroke="#000000" pointer-events="all" style="fill: light-dark(#ffffff, var(--ge-dark-color, #121212)); stroke: light-dark(rgb(0, 0, 0), rgb(255, 255, 255));"/></g></g><g data-cell-id="101"><g transform="translate(0.5,0.5)"><rect x="360" y="885" width="120" height="40" fill="#ffffff" stroke="#000000" pointer-events="all" style="fill: light-dark(#ffffff, var(--ge-dark-color, #121212)); stroke: light-dark(rgb(0, 0, 0), rgb(255, 255, 255));"/></g></g></g></g></g></svg>