<?xml version="1.0" encoding="UTF-8"?>
<!DOCTYPE svg PUBLIC "-//W3C//DTD SVG 1.1//EN" "http://www.w3.org/Graphics/SVG/1.1/DTD/svg11.dtd">
<svg xmlns="http://www.w3.org/2000/svg" style="background: transparent; background-color: transparent; color-scheme: light dark;" xmlns:xlink="http://www.w3.org/1999/xlink" version="1.1" width="471px" height="910px" viewBox="0 0 471 910"><defs/><g><g data-cell-id="0"><g data-cell-id="1"><g data-cell-id="2"><g transform="translate(0.5,0.5)"><path d="M 15.37 28 L 29 28 Q 39 28 48.49 24.84 L 59.51 21.16 Q 69 18 79 18 L 92.63 18" fill="none" stroke="#000000" stroke-miterlimit="10" stroke-dasharray="3 3" pointer-events="stroke" style="stroke: light-dark(rgb(0, 0, 0), rgb(255, 255, 255));"/><path d="M 10.12 28 L 17.12 24.5 L 15.37 28 L 17.12 31.5 Z" fill="#000000" stroke="#000000" stroke-miterlimit="10" pointer-events="all" style="fill: light-dark(rgb(0, 0, 0), rgb(255, 255, 255)); stroke: light-dark(rgb(0, 0, 0), rgb(255, 255, 255));"/><path d="M 97.88 18 L 90.88 21.5 L 92.63 18 L 90.88 14.5 Z" fill="#000000" stroke="#000000" stroke-miterlimit="10" pointer-events="all" style="fill: light-dark(rgb(0, 0, 0), rgb(255, 255, 255)); stroke: light-dark(rgb(0, 0, 0), rgb(255, 255, 255));"/></g></g><g data-cell-id="5"><g transform="translate(0.5,0.5)"><path d="M 15.37 78 L 29 78 Q 39 78 48.49 74.84 L 59.51 71.16 Q 69 68 79 68 L 92.63 68" fill="none" stroke="#000000" stroke-miterlimit="10" stroke-dasharray="8 8" pointer-events="stroke" style="stroke: light-dark(rgb(0, 0, 0), rgb(255, 255, 255));"/><path d="M 10.12 78 L 17.12 75.67 L 15.37 78 L 17.12 80.33 Z" fill="#000000" stroke="#000000" stroke-miterlimit="10" pointer-events="all" style="fill: light-dark(rgb(0, 0, 0), rgb(255, 255, 255)); stroke: light-dark(rgb(0, 0, 0), rgb(255, 255, 255));"/><path d="M 97.88 68 L 90.88 70.33 L 92.63 68 L 90.88 65.67 Z" fill="#000000" stroke="#000000" stroke-miterlimit="10" pointer-events="all" style="fill: light-dark(rgb(0, 0, 0), rgb(255, 255, 255)); stroke: light-dark(rgb(0, 0, 0), rgb(255, 255, 255));"/></g></g><g data-cell-id="8"><g transform="translate(0.5,0.5)"><path d="M 11.24 128 L 29 128 Q 39 128 48.49 124.84 L 59.51 121.16 Q 69 118 79 118 L 96.76 118" fill="none" stroke="#000000" stroke-miterlimit="10" stroke-dasharray="12 12" pointer-events="stroke" style="stroke: light-dark(rgb(0, 0, 0), rgb(255, 255, 255));"/><path d="M 17.12 124.5 L 10.12 128 L 17.12 131.5" fill="none" stroke="#000000" stroke-miterlimit="10" pointer-events="all" style="stroke: light-dark(rgb(0, 0, 0), rgb(255, 255, 255));"/><path d="M 90.88 121.5 L 97.88 118 L 90.88 114.5" fill="none" stroke="#000000" stroke-miterlimit="10" pointer-events="all" style="stroke: light-dark(rgb(0, 0, 0), rgb(255, 255, 255));"/></g></g><g data-cell-id="11"><g transform="translate(0.5,0.5)"><path d="M 371.24 18 L 389 18 Q 399 18 408.49 14.84 L 419.51 11.16 Q 429 8 439 8 L 456.76 8" fill="none" stroke="#000000" stroke-miterlimit="10" stroke-dasharray="1 1" pointer-events="stroke" style="stroke: light-dark(rgb(0, 0, 0), rgb(255, 255, 255));"/><path d="M 377.12 15.67 L 370.12 18 L 377.12 20.33" fill="none" stroke="#000000" stroke-miterlimit="10" pointer-events="all" style="stroke: light-dark(rgb(0, 0, 0), rgb(255, 255, 255));"/><path d="M 450.88 10.33 L 457.88 8 L 450.88 5.67" fill="none" stroke="#000000" stroke-miterlimit="10" pointer-events="all" style="stroke: light-dark(rgb(0, 0, 0), rgb(255, 255, 255));"/></g></g><g data-cell-id="14"><g transform="translate(0.5,0.5)"><path d="M 369 73 L 389 73 Q 399 73 408.49 69.84 L 419.51 66.16 Q 429 63 439 63 L 459 63" fill="none" stroke="#000000" stroke-miterlimit="10" stroke-dasharray="1 2" pointer-events="stroke" style="stroke: light-dark(rgb(0, 0, 0), rgb(255, 255, 255));"/><path d="M 369 73 L 376 69.5" fill="none" stroke="#000000" stroke-miterlimit="10" pointer-events="all" style="stroke: light-dark(rgb(0, 0, 0), rgb(255, 255, 255));"/><path d="M 459 63 L 452 59.5" fill="none" stroke="#000000" stroke-miterlimit="10" pointer-events="all" style="stroke: light-dark(rgb(0, 0, 0), rgb(255, 255, 255));"/></g></g><g data-cell-id="17"><g transform="translate(0.5,0.5)"><path d="M 372 123 L 389 123 Q 399 123 408.49 119.84 L 419.51 116.16 Q 429 113 439 113 L 456 113" fill="none" stroke="#000000" stroke-miterlimit="10" stroke-dasharray="1 4" pointer-events="stroke" style="stroke: light-dark(rgb(0, 0, 0), rgb(255, 255, 255));"/><ellipse cx="369" cy="123" rx="3" ry="3" fill="#000000" stroke="#000000" pointer-events="all" style="fill: light-dark(rgb(0, 0, 0), rgb(255, 255, 255)); stroke: light-dark(rgb(0, 0, 0), rgb(255, 255, 255));"/><ellipse cx="459" cy="113" rx="3" ry="3" fill="#000000" stroke="#000000" pointer-events="all" style="fill: light-dark(rgb(0, 0, 0), rgb(255, 255, 255)); stroke: light-dark(rgb(0, 0, 0), rgb(255, 255, 255));"/></g></g><g data-cell-id="20"><g transform="translate(0.5,0.5)"><path d="M 16.71 218 L 29 218 Q 39 218 48.49 214.84 L 59.51 211.16 Q 69 208 79 208 L 91.29 208" fill="none" stroke="#000000" stroke-miterlimit="10" stroke-dasharray="3 3" pointer-events="stroke" style="stroke: light-dark(rgb(0, 0, 0), rgb(255, 255, 255));"/><path d="M 9.71 218 L 13.21 214.5 L 16.71 218 L 13.21 221.5 Z" fill="#000000" stroke="#000000" stroke-miterlimit="10" pointer-events="all" style="fill: light-dark(rgb(0, 0, 0), rgb(255, 255, 255)); stroke: light-dark(rgb(0, 0, 0), rgb(255, 255, 255));"/><path d="M 98.29 208 L 94.79 211.5 L 91.29 208 L 94.79 204.5 Z" fill="#000000" stroke="#000000" stroke-miterlimit="10" pointer-events="all" style="fill: light-dark(rgb(0, 0, 0), rgb(255, 255, 255)); stroke: light-dark(rgb(0, 0, 0), rgb(255, 255, 255));"/></g></g><g data-cell-id="23"><g transform="translate(0.5,0.5)"><path d="M 16.99 268 L 29 268 Q 39 268 48.49 264.84 L 59.51 261.16 Q 69 258 79 258 L 91.01 258" fill="none" stroke="#000000" stroke-miterlimit="10" stroke-dasharray="8 8" pointer-events="stroke" style="stroke: light-dark(rgb(0, 0, 0), rgb(255, 255, 255));"/><path d="M 9.99 268 L 13.49 265.94 L 16.99 268 L 13.49 270.06 Z" fill="#000000" stroke="#000000" stroke-miterlimit="10" pointer-events="all" style="fill: light-dark(rgb(0, 0, 0), rgb(255, 255, 255)); stroke: light-dark(rgb(0, 0, 0), rgb(255, 255, 255));"/><path d="M 98.01 258 L 94.51 260.06 L 91.01 258 L 94.51 255.94 Z" fill="#000000" stroke="#000000" stroke-miterlimit="10" pointer-events="all" style="fill: light-dark(rgb(0, 0, 0), rgb(255, 255, 255)); stroke: light-dark(rgb(0, 0, 0), rgb(255, 255, 255));"/></g></g><g data-cell-id="26"><g transform="translate(0.5,0.5)"><path d="M 15.37 318 L 29 318 Q 39 318 48.49 314.84 L 59.51 311.16 Q 69 308 79 308 L 92.63 308" fill="none" stroke="#000000" stroke-miterlimit="10" stroke-dasharray="12 12" pointer-events="stroke" style="stroke: light-dark(rgb(0, 0, 0), rgb(255, 255, 255));"/><path d="M 10.12 318 L 17.12 314.5 L 15.37 318 L 17.12 321.5 Z" fill="none" stroke="#000000" stroke-miterlimit="10" pointer-events="all" style="stroke: light-dark(rgb(0, 0, 0), rgb(255, 255, 255));"/><path d="M 97.88 308 L 90.88 311.5 L 92.63 308 L 90.88 304.5 Z" fill="none" stroke="#000000" stroke-miterlimit="10" pointer-events="all" style="stroke: light-dark(rgb(0, 0, 0), rgb(255, 255, 255));"/></g></g><g data-cell-id="29"><g transform="translate(0.5,0.5)"><path d="M 375.37 208 L 389 208 Q 399 208 408.49 204.84 L 419.51 201.16 Q 429 198 439 198 L 452.63 198" fill="none" stroke="#000000" stroke-miterlimit="10" stroke-dasharray="1 1" pointer-events="stroke" style="stroke: light-dark(rgb(0, 0, 0), rgb(255, 255, 255));"/><path d="M 370.12 208 L 377.12 205.67 L 375.37 208 L 377.12 210.33 Z" fill="none" stroke="#000000" stroke-miterlimit="10" pointer-events="all" style="stroke: light-dark(rgb(0, 0, 0), rgb(255, 255, 255));"/><path d="M 457.88 198 L 450.88 200.33 L 452.63 198 L 450.88 195.67 Z" fill="none" stroke="#000000" stroke-miterlimit="10" pointer-events="all" style="stroke: light-dark(rgb(0, 0, 0), rgb(255, 255, 255));"/></g></g><g data-cell-id="32"><g transform="translate(0.5,0.5)"><path d="M 377.12 263 L 389 263 Q 399 263 408.49 259.84 L 419.51 256.16 Q 429 253 439 253 L 450.88 253" fill="none" stroke="#000000" stroke-miterlimit="10" stroke-dasharray="1 2" pointer-events="stroke" style="stroke: light-dark(rgb(0, 0, 0), rgb(255, 255, 255));"/><path d="M 370.12 263 L 377.12 259.5 L 377.12 266.5 Z" fill="none" stroke="#000000" stroke-miterlimit="10" pointer-events="all" style="stroke: light-dark(rgb(0, 0, 0), rgb(255, 255, 255));"/><path d="M 457.88 253 L 450.88 256.5 L 450.88 249.5 Z" fill="none" stroke="#000000" stroke-miterlimit="10" pointer-events="all" style="stroke: light-dark(rgb(0, 0, 0), rgb(255, 255, 255));"/></g></g><g data-cell-id="35"><g transform="translate(0.5,0.5)"><path d="M 377.12 313 L 389 313 Q 399 313 408.49 309.84 L 419.51 306.16 Q 429 303 439 303 L 450.88 303" fill="none" stroke="#000000" stroke-miterlimit="10" stroke-dasharray="1 4" pointer-events="stroke" style="stroke: light-dark(rgb(0, 0, 0), rgb(255, 255, 255));"/><path d="M 370.12 313 L 377.12 310.67 L 377.12 315.33 Z" fill="none" stroke="#000000" stroke-miterlimit="10" pointer-events="all" style="stroke: light-dark(rgb(0, 0, 0), rgb(255, 255, 255));"/><path d="M 457.88 303 L 450.88 305.33 L 450.88 300.67 Z" fill="none" stroke="#000000" stroke-miterlimit="10" pointer-events="all" style="stroke: light-dark(rgb(0, 0, 0), rgb(255, 255, 255));"/></g></g><g data-cell-id="38"><g transform="translate(0.5,0.5)"><path d="M 17.12 418 L 29 418 Q 39 418 48.49 414.84 L 59.51 411.16 Q 69 408 79 408 L 90.88 408" fill="none" stroke="#000000" stroke-miterlimit="10" stroke-dasharray="3 3" pointer-events="stroke" style="stroke: light-dark(rgb(0, 0, 0), rgb(255, 255, 255));"/><path d="M 10.12 418 L 17.12 414.5 L 17.12 418 Z" fill="none" stroke="#000000" stroke-miterlimit="10" pointer-events="all" style="stroke: light-dark(rgb(0, 0, 0), rgb(255, 255, 255));"/><path d="M 97.88 408 L 90.88 404.5 L 90.88 408 Z" fill="none" stroke="#000000" stroke-miterlimit="10" pointer-events="all" style="stroke: light-dark(rgb(0, 0, 0), rgb(255, 255, 255));"/></g></g><g data-cell-id="41"><g transform="translate(0.5,0.5)"><path d="M 12 468 L 29 468 Q 39 468 48.49 464.84 L 59.51 461.16 Q 69 458 79 458 L 96 458" fill="none" stroke="#000000" stroke-miterlimit="10" stroke-dasharray="8 8" pointer-events="stroke" style="stroke: light-dark(rgb(0, 0, 0), rgb(255, 255, 255));"/><ellipse cx="9" cy="468" rx="3" ry="3" fill="none" stroke="#000000" pointer-events="all" style="stroke: light-dark(rgb(0, 0, 0), rgb(255, 255, 255));"/><ellipse cx="99" cy="458" rx="3" ry="3" fill="none" stroke="#000000" pointer-events="all" style="stroke: light-dark(rgb(0, 0, 0), rgb(255, 255, 255));"/></g></g><g data-cell-id="44"><g transform="translate(0.5,0.5)"><path d="M 16.71 518 L 29 518 Q 39 518 48.49 514.84 L 59.51 511.16 Q 69 508 79 508 L 91.29 508" fill="none" stroke="#000000" stroke-miterlimit="10" stroke-dasharray="12 12" pointer-events="stroke" style="stroke: light-dark(rgb(0, 0, 0), rgb(255, 255, 255));"/><path d="M 9.71 518 L 13.21 514.5 L 16.71 518 L 13.21 521.5 Z" fill="none" stroke="#000000" stroke-miterlimit="10" pointer-events="all" style="stroke: light-dark(rgb(0, 0, 0), rgb(255, 255, 255));"/><path d="M 98.29 508 L 94.79 511.5 L 91.29 508 L 94.79 504.5 Z" fill="none" stroke="#000000" stroke-miterlimit="10" pointer-events="all" style="stroke: light-dark(rgb(0, 0, 0), rgb(255, 255, 255));"/></g></g><g data-cell-id="47"><g transform="translate(0.5,0.5)"><path d="M 377 408 L 389 408 Q 399 408 408.49 404.84 L 419.51 401.16 Q 429 398 439 398 L 451 398" fill="none" stroke="#000000" stroke-miterlimit="10" stroke-dasharray="1 1" pointer-events="stroke" style="stroke: light-dark(rgb(0, 0, 0), rgb(255, 255, 255));"/><path d="M 369 404 L 369 412 L 377 412 L 377 404 Z" fill="none" stroke="#000000" stroke-miterlimit="10" pointer-events="all" style="stroke: light-dark(rgb(0, 0, 0), rgb(255, 255, 255));"/><path d="M 459 402 L 459 394 L 451 394 L 451 402 Z" fill="none" stroke="#000000" stroke-miterlimit="10" pointer-events="all" style="stroke: light-dark(rgb(0, 0, 0), rgb(255, 255, 255));"/></g></g><g data-cell-id="50"><g transform="translate(0.5,0.5)"><path d="M 377 463 L 389 463 Q 399 463 408.49 459.84 L 419.51 456.16 Q 429 453 439 453 L 451 453" fill="none" stroke="#000000" stroke-miterlimit="10" stroke-dasharray="1 2" pointer-events="stroke" style="stroke: light-dark(rgb(0, 0, 0), rgb(255, 255, 255));"/><path d="M 369 455 Q 377 455 377 463 Q 377 471 369 471" fill="none" stroke="#000000" stroke-miterlimit="10" pointer-events="all" style="stroke: light-dark(rgb(0, 0, 0), rgb(255, 255, 255));"/><path d="M 459 461 Q 451 461 451 453 Q 451 445 459 445" fill="none" stroke="#000000" stroke-miterlimit="10" pointer-events="all" style="stroke: light-dark(rgb(0, 0, 0), rgb(255, 255, 255));"/></g></g><g data-cell-id="53"><g transform="translate(0.5,0.5)"><path d="M 369 513 L 389 513 Q 399 513 408.49 509.84 L 419.51 506.16 Q 429 503 439 503 L 459 503" fill="none" stroke="#000000" stroke-miterlimit="10" stroke-dasharray="1 4" pointer-events="stroke" style="stroke: light-dark(rgb(0, 0, 0), rgb(255, 255, 255));"/><path d="M 373 509 L 381 517" fill="none" stroke="#000000" stroke-miterlimit="10" pointer-events="all" style="stroke: light-dark(rgb(0, 0, 0), rgb(255, 255, 255));"/><path d="M 455 507 L 447 499" fill="none" stroke="#000000" stroke-miterlimit="10" pointer-events="all" style="stroke: light-dark(rgb(0, 0, 0), rgb(255, 255, 255));"/></g></g><g data-cell-id="56"><g><path d="M 9 608 L 29 608 Q 39 608 48.49 604.84 L 59.51 601.16 Q 69 598 79 598 L 99 598" fill="none" stroke="#000000" stroke-width="2" stroke-miterlimit="10" stroke-dasharray="6 6" pointer-events="stroke" style="stroke: light-dark(rgb(0, 0, 0), rgb(255, 255, 255));"/><path d="M 13.5 603.5 L 22.5 612.5 M 13.5 612.5 L 22.5 603.5" fill="none" stroke="#000000" stroke-width="2" stroke-miterlimit="10" pointer-events="all" style="stroke: light-dark(rgb(0, 0, 0), rgb(255, 255, 255));"/><path d="M 94.5 602.5 L 85.5 593.5 M 94.5 593.5 L 85.5 602.5" fill="none" stroke="#000000" stroke-width="2" stroke-miterlimit="10" pointer-events="all" style="stroke: light-dark(rgb(0, 0, 0), rgb(255, 255, 255));"/></g></g><g data-cell-id="59"><g><path d="M 27 658 L 33 658 Q 39 658 48.49 654.84 L 59.51 651.16 Q 69 648 75 648 L 81 648" fill="none" stroke="#000000" stroke-width="2" stroke-miterlimit="10" stroke-dasharray="16 16" pointer-events="stroke" style="stroke: light-dark(rgb(0, 0, 0), rgb(255, 255, 255));"/><ellipse cx="19" cy="658" rx="8" ry="8" fill="none" stroke="#000000" stroke-width="2" pointer-events="all" style="stroke: light-dark(rgb(0, 0, 0), rgb(255, 255, 255));"/><path d="M 11 658 L 27 658 M 19 650 L 19 666" fill="none" stroke="#000000" stroke-width="2" stroke-miterlimit="10" pointer-events="all" style="stroke: light-dark(rgb(0, 0, 0), rgb(255, 255, 255));"/><ellipse cx="89" cy="648" rx="8" ry="8" fill="none" stroke="#000000" stroke-width="2" pointer-events="all" style="stroke: light-dark(rgb(0, 0, 0), rgb(255, 255, 255));"/><path d="M 97 648 L 81 648 M 89 656 L 89 640" fill="none" stroke="#000000" stroke-width="2" stroke-miterlimit="10" pointer-events="all" style="stroke: light-dark(rgb(0, 0, 0), rgb(255, 255, 255));"/></g></g><g data-cell-id="62"><g><path d="M 27 708 L 33 708 Q 39 708 48.49 704.84 L 59.51 701.16 Q 69 698 75 698 L 81 698" fill="none" stroke="#000000" stroke-width="2" stroke-miterlimit="10" stroke-dasharray="24 24" pointer-events="stroke" style="stroke: light-dark(rgb(0, 0, 0), rgb(255, 255, 255));"/><ellipse cx="19" cy="708" rx="8" ry="8" fill="#000000" stroke="#000000" stroke-width="2" pointer-events="all" style="fill: light-dark(rgb(0, 0, 0), rgb(255, 255, 255)); stroke: light-dark(rgb(0, 0, 0), rgb(255, 255, 255));"/><ellipse cx="89" cy="698" rx="8" ry="8" fill="none" stroke="#000000" stroke-width="2" pointer-events="all" style="stroke: light-dark(rgb(0, 0, 0), rgb(255, 255, 255));"/></g></g><g data-cell-id="65"><g><path d="M 369 598 L 389 598 Q 399 598 408.49 594.84 L 419.51 591.16 Q 429 588 439 588 L 459 588" fill="none" stroke="#a50040" stroke-width="2" stroke-miterlimit="10" stroke-dasharray="2 2" pointer-events="stroke" style="stroke: light-dark(rgb(165, 0, 64), rgb(255, 255, 255));"/><path d="M 369 593.5 L 369 602.5" fill="none" stroke="#a50040" stroke-width="2" stroke-miterlimit="10" pointer-events="all" style="stroke: light-dark(rgb(165, 0, 64), rgb(255, 255, 255));"/><path d="M 459 592.5 L 459 583.5" fill="none" stroke="#a50040" stroke-width="2" stroke-miterlimit="10" pointer-events="all" style="stroke: light-dark(rgb(165, 0, 64), rgb(255, 255, 255));"/></g></g><g data-cell-id="68"><g><path d="M 369 653 L 389 653 Q 399 653 408.49 649.84 L 419.51 646.16 Q 429 643 439 643 L 459 643" fill="none" stroke="#000000" stroke-width="2" stroke-miterlimit="10" stroke-dasharray="2 4" pointer-events="stroke" style="stroke: light-dark(rgb(0, 0, 0), rgb(255, 255, 255));"/><path d="M 373.5 648.5 L 373.5 657.5" fill="none" stroke="#000000" stroke-width="2" stroke-miterlimit="10" pointer-events="all" style="stroke: light-dark(rgb(0, 0, 0), rgb(255, 255, 255));"/><path d="M 454.5 647.5 L 454.5 638.5" fill="none" stroke="#000000" stroke-width="2" stroke-miterlimit="10" pointer-events="all" style="stroke: light-dark(rgb(0, 0, 0), rgb(255, 255, 255));"/></g></g><g data-cell-id="71"><g><path d="M 369 703 L 389 703 Q 399 703 408.49 699.84 L 419.51 696.16 Q 429 693 439 693 L 459 693" fill="none" stroke="#000000" stroke-width="2" stroke-miterlimit="10" stroke-dasharray="2 8" pointer-events="stroke" style="stroke: light-dark(rgb(0, 0, 0), rgb(255, 255, 255));"/><path d="M 373.5 698.5 L 373.5 707.5 M 378 698.5 L 378 707.5" fill="none" stroke="#000000" stroke-width="2" stroke-miterlimit="10" pointer-events="all" style="stroke: light-dark(rgb(0, 0, 0), rgb(255, 255, 255));"/><path d="M 454.5 697.5 L 454.5 688.5 M 450 697.5 L 450 688.5" fill="none" stroke="#000000" stroke-width="2" stroke-miterlimit="10" pointer-events="all" style="stroke: light-dark(rgb(0, 0, 0), rgb(255, 255, 255));"/></g></g><g data-cell-id="74"><g transform="translate(0.5,0.5)"><path d="M 9 798 L 29 798 Q 39 798 48.49 794.84 L 59.51 791.16 Q 69 788 79 788 L 99 788" fill="none" stroke="#000000" stroke-width="3" stroke-miterlimit="10" stroke-dasharray="9 9" pointer-events="stroke" style="stroke: light-dark(rgb(0, 0, 0), rgb(255, 255, 255));"/><path d="M 9 803 L 19 798 L 9 793" fill="none" stroke="#000000" stroke-width="3" stroke-miterlimit="10" pointer-events="all" style="stroke: light-dark(rgb(0, 0, 0), rgb(255, 255, 255));"/><path d="M 99 783 L 89 788 L 99 793" fill="none" stroke="#000000" stroke-width="3" stroke-miterlimit="10" pointer-events="all" style="stroke: light-dark(rgb(0, 0, 0), rgb(255, 255, 255));"/></g></g><g data-cell-id="77"><g transform="translate(0.5,0.5)"><path d="M 9 848 L 29 848 Q 39 848 48.49 844.84 L 59.51 841.16 Q 69 838 79 838 L 99 838" fill="none" stroke="#000000" stroke-width="3" stroke-miterlimit="10" stroke-dasharray="24 24" pointer-events="stroke" style="stroke: light-dark(rgb(0, 0, 0), rgb(255, 255, 255));"/><path d="M 19 843 L 19 853 M 9 853 L 19 848 L 9 843" fill="none" stroke="#000000" stroke-width="3" stroke-miterlimit="10" pointer-events="all" style="stroke: light-dark(rgb(0, 0, 0), rgb(255, 255, 255));"/><path d="M 89 843 L 89 833 M 99 833 L 89 838 L 99 843" fill="none" stroke="#000000" stroke-width="3" stroke-miterlimit="10" pointer-events="all" style="stroke: light-dark(rgb(0, 0, 0), rgb(255, 255, 255));"/></g></g><g data-cell-id="80"><g transform="translate(0.5,0.5)"><path d="M 27.5 898 L 33.25 898 Q 39 898 48.49 894.84 L 59.51 891.16 Q 69 888 74.75 888 L 80.5 888" fill="none" stroke="#000000" stroke-width="3" stroke-miterlimit="10" stroke-dasharray="36 36" pointer-events="stroke" style="stroke: light-dark(rgb(0, 0, 0), rgb(255, 255, 255));"/><ellipse cx="24" cy="898" rx="3" ry="3" fill="none" stroke="#000000" stroke-width="3" pointer-events="all" style="stroke: light-dark(rgb(0, 0, 0), rgb(255, 255, 255));"/><path d="M 14 893 L 14 903 M 20.5 898 L 9 898" fill="none" stroke="#000000" stroke-width="3" stroke-miterlimit="10" pointer-events="all" style="stroke: light-dark(rgb(0, 0, 0), rgb(255, 255, 255));"/><ellipse cx="84" cy="888" rx="3" ry="3" fill="none" stroke="#000000" stroke-width="3" pointer-events="all" style="stroke: light-dark(rgb(0, 0, 0), rgb(255, 255, 255));"/><path d="M 94 893 L 94 883 M 87.5 888 L 99 888" fill="none" stroke="#000000" stroke-width="3" stroke-miterlimit="10" pointer-events="all" style="stroke: light-dark(rgb(0, 0, 0), rgb(255, 255, 255));"/></g></g><g data-cell-id="83"><g transform="translate(0.5,0.5)"><path d="M 387.5 788 L 393.25 788 Q 399 788 408.49 784.84 L 419.51 781.16 Q 429 778 434.75 778 L 440.5 778" fill="none" stroke="#000000" stroke-width="3" stroke-miterlimit="10" stroke-dasharray="3 3" pointer-events="stroke" style="stroke: light-dark(rgb(0, 0, 0), rgb(255, 255, 255));"/><ellipse cx="384" cy="788" rx="3" ry="3" fill="none" stroke="#000000" stroke-width="3" pointer-events="all" style="stroke: light-dark(rgb(0, 0, 0), rgb(255, 255, 255));"/><path d="M 369 793 L 379 788 L 369 783 M 379 788 L 369 788" fill="none" stroke="#000000" stroke-width="3" stroke-miterlimit="10" pointer-events="all" style="stroke: light-dark(rgb(0, 0, 0), rgb(255, 255, 255));"/><ellipse cx="444" cy="778" rx="3" ry="3" fill="none" stroke="#000000" stroke-width="3" pointer-events="all" style="stroke: light-dark(rgb(0, 0, 0), rgb(255, 255, 255));"/><path d="M 459 773 L 449 778 L 459 783 M 449 778 L 459 778" fill="none" stroke="#000000" stroke-width="3" stroke-miterlimit="10" pointer-events="all" style="stroke: light-dark(rgb(0, 0, 0), rgb(255, 255, 255));"/></g></g><g data-cell-id="86"><g transform="translate(0.5,0.5)"><path d="M 390.35 843 L 394.68 843 Q 399 843 408.49 839.84 L 419.51 836.16 Q 429 833 433.32 833 L 437.65 833" fill="none" stroke="#000000" stroke-width="3" stroke-miterlimit="10" stroke-dasharray="3 6" pointer-events="stroke" style="stroke: light-dark(rgb(0, 0, 0), rgb(255, 255, 255));"/><path d="M 372.35 843 L 381.35 838.5 L 381.35 847.5 Z M 381.35 843 L 390.35 838.5 L 390.35 847.5 Z" fill="none" stroke="#000000" stroke-width="3" stroke-miterlimit="10" pointer-events="all" style="stroke: light-dark(rgb(0, 0, 0), rgb(255, 255, 255));"/><path d="M 455.65 833 L 446.65 837.5 L 446.65 828.5 Z M 446.65 833 L 437.65 837.5 L 437.65 828.5 Z" fill="none" stroke="#000000" stroke-width="3" stroke-miterlimit="10" pointer-events="all" style="stroke: light-dark(rgb(0, 0, 0), rgb(255, 255, 255));"/></g></g><g data-cell-id="89"><g transform="translate(0.5,0.5)"><path d="M 390.35 893 L 394.68 893 Q 399 893 408.49 889.84 L 419.51 886.16 Q 429 883 433.32 883 L 437.65 883" fill="none" stroke="#000000" stroke-width="3" stroke-miterlimit="10" stroke-dasharray="3 12" pointer-events="stroke" style="stroke: light-dark(rgb(0, 0, 0), rgb(255, 255, 255));"/><path d="M 372.35 893 L 381.35 888.5 L 381.35 897.5 Z M 381.35 893 L 390.35 888.5 L 390.35 897.5 Z" fill="#000000" stroke="#000000" stroke-width="3" stroke-miterlimit="10" pointer-events="all" style="fill: light-dark(rgb(0, 0, 0), rgb(255, 255, 255)); stroke: light-dark(rgb(0, 0, 0), rgb(255, 255, 255));"/><path d="M 455.65 883 L 446.65 887.5 L 446.65 878.5 Z M 446.65 883 L 437.65 887.5 L 437.65 878.5 Z" fill="#000000" stroke="#000000" stroke-width="3" stroke-miterlimit="10" pointer-events="all" style="fill: light-dark(rgb(0, 0, 0), rgb(255, 255, 255)); stroke: light-dark(rgb(0, 0, 0), rgb(255, 255, 255));"/></g></g></g></g></g></svg>