<svg xmlns="http://www.w3.org/2000/svg" xmlns:xlink="http://www.w3.org/1999/xlink" height="202px" style="background: transparent; background-color: transparent; color-scheme: light dark;" version="1.1" viewBox="0 0 342 202" width="342px"><defs></defs><g><g data-cell-id="0"><g data-cell-id="1"><g data-cell-id="10"><g transform="translate(0.5,0.5)"><path d="M 120 18 L 210 18 M 210 22 L 120 22 M 210 22" fill="none" pointer-events="all" stroke="#000000" stroke-linejoin="round" stroke-miterlimit="10" style="stroke: light-dark(rgb(0, 0, 0), rgb(255, 255, 255));"></path></g></g><g data-cell-id="11"><g transform="translate(0.5,0.5)"><rect fill="#ffffff" height="40" pointer-events="all" stroke="#000000" style="fill: light-dark(#ffffff, var(--ge-dark-color, #121212)); stroke: light-dark(rgb(0, 0, 0), rgb(255, 255, 255));" width="120" x="210" y="0"></rect></g></g><g data-cell-id="12"><g transform="translate(0.5,0.5)"><rect fill="#ffffff" height="40" pointer-events="all" stroke="#000000" style="fill: light-dark(#ffffff, var(--ge-dark-color, #121212)); stroke: light-dark(rgb(0, 0, 0), rgb(255, 255, 255));" width="120" x="0" y="0"></rect></g></g><g data-cell-id="14"><g transform="translate(0.5,0.5)"><path d="M 139.5 85 L 139.5 95.5 L 120.5 80 L 139.5 64.5 L 139.5 75 L 190.5 75 L 190.5 64.5 L 209.5 80 L 190.5 95.5 L 190.5 85 Z" fill="none" pointer-events="all" stroke="#000000" stroke-linejoin="round" stroke-miterlimit="10" style="stroke: light-dark(rgb(0, 0, 0), rgb(255, 255, 255));"></path></g></g><g data-cell-id="15"><g transform="translate(0.5,0.5)"><rect fill="#ffffff" height="40" pointer-events="all" stroke="#000000" style="fill: light-dark(#ffffff, var(--ge-dark-color, #121212)); stroke: light-dark(rgb(0, 0, 0), rgb(255, 255, 255));" width="120" x="210" y="60"></rect></g></g><g data-cell-id="16"><g transform="translate(0.5,0.5)"><rect fill="#ffffff" height="40" pointer-events="all" stroke="#000000" style="fill: light-dark(#ffffff, var(--ge-dark-color, #121212)); stroke: light-dark(rgb(0, 0, 0), rgb(255, 255, 255));" width="120" x="0" y="60"></rect></g></g><g data-cell-id="17"><g transform="translate(0.5,0.5)"><path d="M 120.5 145 L 120.5 135 L 165 135 Q 175 135 175 145 L 175 175 L 200.5 175 L 200.5 164.5 L 219.5 180 L 200.5 195.5 L 200.5 185 L 175 185 Q 165 185 165 175 L 165 145 Z" fill="none" pointer-events="all" stroke="#000000" stroke-linejoin="round" stroke-miterlimit="10" style="stroke: light-dark(rgb(0, 0, 0), rgb(255, 255, 255));"></path><path d="M 200.5 175 L 200.5 164.5 L 219.5 180 L 200.5 195.5 L 200.5 185" fill="none" pointer-events="all" stroke="#000000" stroke-linejoin="flat" stroke-miterlimit="4" style="stroke: light-dark(rgb(0, 0, 0), rgb(255, 255, 255));"></path></g></g><g data-cell-id="18"><g transform="translate(0.5,0.5)"><rect fill="#ffffff" height="40" pointer-events="all" stroke="#000000" style="fill: light-dark(#ffffff, var(--ge-dark-color, #121212)); stroke: light-dark(rgb(0, 0, 0), rgb(255, 255, 255));" width="120" x="220" y="160"></rect></g></g><g data-cell-id="19"><g transform="translate(0.5,0.5)"><rect fill="#ffffff" height="40" pointer-events="all" stroke="#000000" style="fill: light-dark(#ffffff, var(--ge-dark-color, #121212)); stroke: light-dark(rgb(0, 0, 0), rgb(255, 255, 255));" width="120" x="0" y="120"></rect></g></g></g></g></g></svg>