<svg xmlns="http://www.w3.org/2000/svg" xmlns:xlink="http://www.w3.org/1999/xlink" height="609px" style="background: transparent; background-color: transparent; color-scheme: light dark;" version="1.1" viewBox="0 0 580 609" width="580px"><defs></defs><g><g data-cell-id="0"><g data-cell-id="1"><g data-cell-id="17"><g transform="translate(0.5,0.5)"><path d="M 157.93 341.08 L 152.93 332.42 L 244.82 279.37 Q 249.82 276.48 254.82 279.37 L 312.5 312.67 L 370.18 345.97 L 410.97 322.42 L 405.72 313.33 L 429.93 317.25 L 421.22 340.17 L 415.97 331.08 L 375.18 354.63 Q 370.18 357.52 365.18 354.63 L 307.5 321.33 Q 307.5 321.33 307.5 321.33 L 249.82 288.03 Z" fill="none" pointer-events="all" stroke="#000000" stroke-linejoin="round" stroke-miterlimit="10" style="stroke: light-dark(rgb(0, 0, 0), rgb(255, 255, 255));"></path><path d="M 410.97 322.42 L 405.72 313.33 L 429.93 317.25 L 421.22 340.17 L 415.97 331.08" fill="none" pointer-events="all" stroke="#000000" stroke-linejoin="flat" stroke-miterlimit="4" style="stroke: light-dark(rgb(0, 0, 0), rgb(255, 255, 255));"></path></g></g><g data-cell-id="18"><g transform="translate(0.5,0.5)"><rect fill="#ffffff" height="40" pointer-events="all" stroke="#000000" style="fill: light-dark(#ffffff, var(--ge-dark-color, #121212)); stroke: light-dark(rgb(0, 0, 0), rgb(255, 255, 255));" width="120" x="405" y="277"></rect></g></g><g data-cell-id="19"><g transform="translate(0.5,0.5)"><rect fill="#ffffff" height="40" pointer-events="all" stroke="#000000" style="fill: light-dark(#ffffff, var(--ge-dark-color, #121212)); stroke: light-dark(rgb(0, 0, 0), rgb(255, 255, 255));" width="120" x="35" y="317"></rect></g></g><g data-cell-id="20"><g transform="translate(0.5,0.5)"><path d="M 142.93 461.58 L 147.93 452.92 L 218.84 493.86 L 307.5 442.67 L 396.16 391.48 Q 401.16 388.6 406.16 391.48 L 425.97 402.92 L 431.22 393.83 L 439.93 416.75 L 415.72 420.67 L 420.97 411.58 L 401.16 400.14 L 312.5 451.33 Q 312.5 451.33 312.5 451.33 L 223.84 502.52 Q 218.84 505.4 213.84 502.52 Z" fill="none" pointer-events="all" stroke="#000000" stroke-linejoin="round" stroke-miterlimit="10" style="stroke: light-dark(rgb(0, 0, 0), rgb(255, 255, 255));"></path><path d="M 425.97 402.92 L 431.22 393.83 L 439.93 416.75 L 415.72 420.67 L 420.97 411.58" fill="none" pointer-events="all" stroke="#000000" stroke-linejoin="flat" stroke-miterlimit="4" style="stroke: light-dark(rgb(0, 0, 0), rgb(255, 255, 255));"></path></g></g><g data-cell-id="21"><g transform="translate(0.5,0.5)"><rect fill="#ffffff" height="40" pointer-events="all" stroke="#000000" style="fill: light-dark(#ffffff, var(--ge-dark-color, #121212)); stroke: light-dark(rgb(0, 0, 0), rgb(255, 255, 255));" width="120" x="415" y="417"></rect></g></g><g data-cell-id="22"><g transform="translate(0.5,0.5)"><rect fill="#ffffff" height="40" pointer-events="all" stroke="#000000" style="fill: light-dark(#ffffff, var(--ge-dark-color, #121212)); stroke: light-dark(rgb(0, 0, 0), rgb(255, 255, 255));" width="120" x="25" y="437"></rect></g></g><g data-cell-id="23"><g transform="translate(0.5,0.5)"><path d="M 165.5 592 L 165.5 582 L 194.19 582 L 402.65 512.51 Q 404.19 512 405.81 512 L 415.5 512 L 415.5 501.5 L 434.5 517 L 415.5 532.5 L 415.5 522 L 405.81 522 L 197.35 591.49 Q 195.81 592 194.19 592 Z" fill="none" pointer-events="all" stroke="#000000" stroke-linejoin="round" stroke-miterlimit="10" style="stroke: light-dark(rgb(0, 0, 0), rgb(255, 255, 255));"></path><path d="M 415.5 512 L 415.5 501.5 L 434.5 517 L 415.5 532.5 L 415.5 522" fill="none" pointer-events="all" stroke="#000000" stroke-linejoin="flat" stroke-miterlimit="4" style="stroke: light-dark(rgb(0, 0, 0), rgb(255, 255, 255));"></path></g></g><g data-cell-id="24"><g transform="translate(0.5,0.5)"><rect fill="#ffffff" height="40" pointer-events="all" stroke="#000000" style="fill: light-dark(#ffffff, var(--ge-dark-color, #121212)); stroke: light-dark(rgb(0, 0, 0), rgb(255, 255, 255));" width="120" x="435" y="497"></rect></g></g><g data-cell-id="25"><g transform="translate(0.5,0.5)"><rect fill="#ffffff" height="40" pointer-events="all" stroke="#000000" style="fill: light-dark(#ffffff, var(--ge-dark-color, #121212)); stroke: light-dark(rgb(0, 0, 0), rgb(255, 255, 255));" width="120" x="45" y="567"></rect></g></g><g data-cell-id="118"><g transform="translate(0.5,0.5)"><path d="M 99.23 67 Q 230 167 270 117 Q 310 67 330 57 Q 350 47 373.78 52.29" fill="none" pointer-events="stroke" stroke="#000000" stroke-miterlimit="10" style="stroke: light-dark(rgb(0, 0, 0), rgb(255, 255, 255));"></path><path d="M 378.91 53.42 L 371.32 55.32 L 373.78 52.29 L 372.83 48.49 Z" fill="#000000" pointer-events="all" stroke="#000000" stroke-miterlimit="10" style="fill: light-dark(rgb(0, 0, 0), rgb(255, 255, 255)); stroke: light-dark(rgb(0, 0, 0), rgb(255, 255, 255));"></path></g></g><g data-cell-id="119"><g transform="translate(0.5,0.5)"><rect fill="#ffffff" height="60" pointer-events="all" stroke="#000000" style="fill: light-dark(#ffffff, var(--ge-dark-color, #121212)); stroke: light-dark(rgb(0, 0, 0), rgb(255, 255, 255));" width="120" x="0" y="7"></rect></g></g><g data-cell-id="120"><g transform="translate(0.5,0.5)"><rect fill="#ffffff" height="60" pointer-events="all" stroke="#000000" style="fill: light-dark(#ffffff, var(--ge-dark-color, #121212)); stroke: light-dark(rgb(0, 0, 0), rgb(255, 255, 255));" width="120" x="380" y="37"></rect></g></g><g data-cell-id="121"><g transform="translate(0.5,0.5)"><rect fill="#ffffff" height="40" pointer-events="all" stroke="#000000" style="fill: light-dark(#ffffff, var(--ge-dark-color, #121212)); stroke: light-dark(rgb(0, 0, 0), rgb(255, 255, 255));" width="120" x="220" y="147"></rect></g></g><g data-cell-id="122"><g transform="translate(0.5,0.5)"><path d="M 340 167 L 470.81 223.06 Q 480 227 485.14 218.43 L 564.86 85.57 Q 570 77 565.04 68.32 L 534.96 15.68 Q 530 7 520 7 L 420 7 Q 410 7 417.07 14.07 L 435.5 32.5" fill="none" pointer-events="stroke" stroke="#000000" stroke-miterlimit="10" style="stroke: light-dark(rgb(0, 0, 0), rgb(255, 255, 255));"></path><path d="M 439.21 36.21 L 431.78 33.73 L 435.5 32.5 L 436.73 28.78 Z" fill="#000000" pointer-events="all" stroke="#000000" stroke-miterlimit="10" style="fill: light-dark(rgb(0, 0, 0), rgb(255, 255, 255)); stroke: light-dark(rgb(0, 0, 0), rgb(255, 255, 255));"></path></g><g data-cell-id="123"><g transform="translate(0.5,0.5)"><path d="M 538.27 106.22 L 558.27 106.22 L 558.27 120.22 L 538.27 120.22 Z" fill="#ffffff" pointer-events="all" stroke="#000000" stroke-miterlimit="10" style="fill: light-dark(#ffffff, var(--ge-dark-color, #121212)); stroke: light-dark(rgb(0, 0, 0), rgb(255, 255, 255));"></path><path d="M 538.27 106.22 L 548.27 113.22 L 558.27 106.22" fill="none" pointer-events="all" stroke="#000000" stroke-miterlimit="10" style="stroke: light-dark(rgb(0, 0, 0), rgb(255, 255, 255));"></path></g></g></g></g></g></g></svg>